<svg width="271" height="558" viewBox="0 0 271 558" fill="none" xmlns="http://www.w3.org/2000/svg">
<path d="M28.1403 14.8814L26.2791 8.26298L23.4544 14.531L-6.80874 81.6855L-88.2246 75.5982L-96.6433 74.9688L-89.9249 80.0808L-27.4934 127.585L-57.659 194.523L-60.7265 201.33L-54.1786 197.743L14.9433 159.875L77.6655 207.601L83.6072 212.122L81.586 204.934L61.7098 134.255L130.511 96.5624L137.915 92.5063L129.497 91.8769L48.0807 85.7895L28.1403 14.8814Z" fill="#FFFBE6" stroke="#347928" stroke-width="5"/>
<path d="M162.307 235.836L161.828 228.977L157.791 234.538L114.534 294.126L36.0576 271.575L27.9424 269.243L33.4835 275.618L84.9681 334.853L41.8507 394.249L37.4659 400.289L44.6041 398.111L119.964 375.117L171.689 434.629L176.588 440.266L176.068 432.816L170.95 359.561L245.96 336.674L254.033 334.211L245.918 331.879L167.441 309.329L162.307 235.836Z" fill="#FFFBE6" stroke="#347928" stroke-width="5"/>
<path d="M68.1749 466.685L65.7084 460.267L63.4767 466.77L53.8405 494.848L20.8326 495.45L12.392 495.604L19.5549 500.071L46.3199 516.762L36.7607 544.616L34.337 551.678L40.5244 547.5L66.9683 529.64L94.0431 546.525L100.378 550.475L97.6997 543.506L87.1355 516.019L113.277 498.363L120.273 493.638L111.832 493.792L78.8242 494.393L68.1749 466.685Z" fill="#FFFBE6" stroke="#347928" stroke-width="5"/>
</svg>
