<svg width="197" height="607" viewBox="0 0 197 607" fill="none" xmlns="http://www.w3.org/2000/svg">
<path d="M169.307 134.754L168.828 127.895L164.791 133.456L121.534 193.044L43.0575 170.493L34.9423 168.161L40.4834 174.536L91.968 233.772L48.8506 293.167L44.4659 299.207L51.604 297.029L126.964 274.036L178.688 333.547L183.588 339.184L183.067 331.734L177.95 258.479L252.96 235.592L261.033 233.129L252.918 230.797L174.441 208.247L169.307 134.754Z" fill="#FFFBE6" stroke="#347928" stroke-width="5"/>
<path d="M97.1518 14.167L95.1833 7.57925L92.4609 13.892L80.7061 41.1488L47.7491 39.2167L39.3215 38.7227L46.122 43.7261L71.532 62.4216L59.8711 89.4607L56.9147 96.3161L63.4034 92.624L91.1352 76.8447L116.839 95.7567L122.854 100.182L120.716 93.0277L112.285 64.8108L139.699 49.2121L147.036 45.0374L138.608 44.5434L105.651 42.6113L97.1518 14.167Z" fill="#FFFBE6" stroke="#347928" stroke-width="5"/>
<path d="M111.203 374.373L106.986 368.948L106.732 375.818L104.013 449.44L26.3192 474.563L18.2847 477.161L26.4346 479.357L102.155 499.761L99.4449 573.145L99.1693 580.608L103.881 574.813L153.624 513.63L229.698 534.13L236.904 536.072L232.323 530.179L187.28 472.236L236.792 411.338L242.121 404.783L234.087 407.381L156.392 432.503L111.203 374.373Z" fill="#FFFBE6" stroke="#347928" stroke-width="5"/>
</svg>
