<svg width="54" height="54" viewBox="0 0 54 54" fill="none" xmlns="http://www.w3.org/2000/svg">
<path fill-rule="evenodd" clip-rule="evenodd" d="M45 9C48.728 9 51.75 12.0221 51.75 15.75V38.25C51.75 41.978 48.728 45 45 45H9C5.27209 45 2.25 41.978 2.25 38.25V15.75C2.25 12.0221 5.27209 9 9 9H45ZM43.319 13.5H10.6812L25.6059 25.2826C26.4233 25.9281 27.5767 25.9281 28.3943 25.2826L43.319 13.5ZM6.75 16.1298V38.25C6.75 39.4927 7.75737 40.5 9 40.5H45C46.2427 40.5 47.25 39.4927 47.25 38.25V16.1298L31.1825 28.8146C28.7302 30.7508 25.2698 30.7508 22.8175 28.8146L6.75 16.1298Z" fill="white"/>
</svg>
