<svg width="53" height="59" viewBox="0 0 53 59" fill="none" xmlns="http://www.w3.org/2000/svg">
<path d="M52.8137 24.608C47.4989 24.608 42.5718 22.9467 38.5515 20.1245V40.49C38.5515 50.6618 30.0861 58.9343 19.6826 58.9343C15.6623 58.9343 11.9328 57.6956 8.86915 55.5922C4.00409 52.2526 0.813721 46.7296 0.813721 40.49C0.813721 30.3182 9.27913 22.0432 19.6851 22.0432C20.5498 22.0432 21.3946 22.1137 22.2269 22.223V24.5959V32.4531C21.4219 32.2078 20.5721 32.0645 19.6851 32.0645C14.9343 32.0645 11.0681 35.8437 11.0681 40.49C11.0681 43.7251 12.9466 46.5352 15.6897 47.9464C16.8848 48.5609 18.244 48.913 19.6876 48.913C24.329 48.913 28.1157 45.3038 28.2896 40.8057L28.2971 0.645508H38.549C38.549 1.51502 38.636 2.36267 38.79 3.18846C39.5131 7.00653 41.8313 10.283 45.044 12.3305C47.2803 13.7562 49.9489 14.5892 52.8112 14.5892L52.8137 24.608Z" fill="#FFFBE6"/>
</svg>
