<svg width="52" height="52" viewBox="0 0 52 52" fill="none" xmlns="http://www.w3.org/2000/svg">
<g clip-path="url(#clip0_74_76)">
<path d="M49.1978 38.1431L44.148 33.0933C43.2341 32.1798 42.0894 31.5316 40.836 31.2177C39.5826 30.9037 38.2675 30.9359 37.0309 31.3107C35.7944 31.6855 34.6827 32.389 33.8146 33.346C32.9464 34.303 32.3543 35.4777 32.1013 36.7448C23.7741 35.1877 15.6751 27.1219 15.171 19.9127C16.5867 19.6523 17.8895 18.9671 18.9063 17.9483C20.2451 16.6093 20.9972 14.7934 20.9972 12.8999C20.9972 11.0065 20.2451 9.19057 18.9063 7.85161L13.858 2.80183C12.519 1.46305 10.7031 0.710937 8.80968 0.710938C6.91622 0.710937 5.10031 1.46305 3.76135 2.80183C-11.3851 17.9483 34.0513 63.3847 49.1978 48.2383C50.5358 46.8992 51.2874 45.0836 51.2874 43.1907C51.2874 41.2977 50.5358 39.4821 49.1978 38.1431Z" fill="white"/>
</g>
<defs>
<clipPath id="clip0_74_76">
<rect width="52" height="52" fill="white"/>
</clipPath>
</defs>
</svg>
