<svg width="61" height="61" viewBox="0 0 61 61" fill="none" xmlns="http://www.w3.org/2000/svg">
<g clip-path="url(#clip0_74_124)">
<path d="M30.5 5.49508C38.6435 5.49508 39.6093 5.52558 42.8245 5.673C46.149 5.8255 49.5727 6.58292 51.9949 9.00513C54.44 11.4502 55.1745 14.8408 55.327 18.1755C55.4744 21.3907 55.5049 22.3565 55.5049 30.5C55.5049 38.6435 55.4744 39.6093 55.327 42.8245C55.177 46.1313 54.4018 49.5879 51.9949 51.9949C49.5498 54.44 46.1618 55.1745 42.8245 55.327C39.6093 55.4744 38.6435 55.5049 30.5 55.5049C22.3565 55.5049 21.3907 55.4744 18.1755 55.327C14.8942 55.177 11.3918 54.384 9.00513 51.9949C6.57275 49.5625 5.8255 46.1389 5.673 42.8245C5.52558 39.6093 5.49508 38.6435 5.49508 30.5C5.49508 22.3565 5.52558 21.3907 5.673 18.1755C5.82296 14.8815 6.60579 11.4045 9.00513 9.00513C11.4451 6.56512 14.8484 5.8255 18.1755 5.673C21.3907 5.52558 22.3565 5.49508 30.5 5.49508ZM30.5 0C22.2167 0 21.1772 0.0355833 17.9238 0.183C13.209 0.399042 8.52729 1.71054 5.11892 5.11892C1.69783 8.54 0.399042 13.2116 0.183 17.9238C0.0355833 21.1772 0 22.2167 0 30.5C0 38.7833 0.0355833 39.8228 0.183 43.0762C0.399042 47.7859 1.71562 52.4803 5.11892 55.8811C8.53746 59.2996 13.2167 60.601 17.9238 60.817C21.1772 60.9644 22.2167 61 30.5 61C38.7833 61 39.8228 60.9644 43.0762 60.817C47.7884 60.601 52.4753 59.2869 55.8811 55.8811C59.3047 52.4575 60.601 47.7884 60.817 43.0762C60.9644 39.8228 61 38.7833 61 30.5C61 22.2167 60.9644 21.1772 60.817 17.9238C60.601 13.209 59.2869 8.52475 55.8811 5.11892C52.4676 1.70546 47.7757 0.3965 43.0762 0.183C39.8228 0.0355833 38.7833 0 30.5 0Z" fill="#FFFBE6"/>
<path d="M30.5 14.8379C21.8507 14.8379 14.8382 21.8503 14.8382 30.4996C14.8382 39.1489 21.8507 46.1614 30.5 46.1614C39.1493 46.1614 46.1618 39.1489 46.1618 30.4996C46.1618 21.8503 39.1493 14.8379 30.5 14.8379ZM30.5 40.6663C24.8855 40.6663 20.3333 36.1142 20.3333 30.4996C20.3333 24.8851 24.8855 20.333 30.5 20.333C36.1145 20.333 40.6667 24.8851 40.6667 30.4996C40.6667 36.1142 36.1145 40.6663 30.5 40.6663Z" fill="#FFFBE6"/>
<path d="M46.7819 17.8776C48.8033 17.8776 50.4419 16.239 50.4419 14.2176C50.4419 12.1963 48.8033 10.5576 46.7819 10.5576C44.7606 10.5576 43.1219 12.1963 43.1219 14.2176C43.1219 16.239 44.7606 17.8776 46.7819 17.8776Z" fill="#FFFBE6"/>
</g>
<defs>
<clipPath id="clip0_74_124">
<rect width="61" height="61" fill="white"/>
</clipPath>
</defs>
</svg>
